<?xml version="1.0" encoding="UTF-8"?><svg xmlns="http://www.w3.org/2000/svg" viewBox="0 0 176.43 176.43"><defs><style>.d{fill:#231f20;}</style></defs><g id="a"/><g id="b"><g id="c"><path class="d" d="M176.43,60.78c-28.18,.82-62.7,1.93-90.88,2.75,1.78-6.68,3.44-13.37,4.87-20.09C93.05,31.14,101.96-1.31,76.8,.04c-10.49,.56-19.74,8.98-26.24,15.68-6.95,7.16-12.63,15.22-17.86,23.46C19.32,60.25,8.53,82.64,.34,105.76v17.62c5.59,5.13,17.04-35.17,25.92-46.28,14.11-.41,28.23-.83,42.34-1.24-3.01,10.55-6.11,21.07-8.93,31.66-5.53,20.74-10.48,47.53-11,68.9h13.75c.35-14.35,2.53-34.15,5.6-48.09,10.58,.35,21.15,.7,31.73,1.04,8.45,.28,8.44-11.56,0-11.83-9.65-.32-19.3-.63-28.95-.95,3.48-13.76,7.59-27.43,11.46-41.13,29.28-.86,64.89-1.42,94.17-2.27v-12.4Zm-144.05,4.31c1.59-2.97,3.22-5.93,4.92-8.86,8.61-14.84,18.48-32.59,34.47-42.11,2.55-1.52,6.58-3.76,8.62-.72,1.85,2.75,.77,7.72,.35,10.66-1.34,9.34-3.39,18.61-5.66,27.8-1,4.04-2.06,8.06-3.15,12.07-13.18,.39-26.36,.77-39.55,1.16Z"/><g><path class="d" d="M176.43,57.66V0H90.73c4.23,3.11,7.11,7.7,7.57,12.98h65.15l-.04,44.98"/><path class="d" d="M12.98,65.89V12.98H47.95c4.36-4.38,10.49-9.49,16.68-12.98H0V95.17c3.9-9.93,8.24-19.77,12.98-29.28Z"/><path class="d" d="M45.89,163.45H12.98v-50.1c-2.26,4.5-7.97,16.14-12.98,15.44v47.64H45.36"/><path class="d" d="M66.33,176.43h110.1V76.15l-12.96,.44h0l-.03,86.85H66.89"/></g></g></g></svg>