<?xml version="1.0" encoding="UTF-8"?><svg xmlns="http://www.w3.org/2000/svg" viewBox="0 0 496.99 561.91"><defs><style>.d{fill:#231f20;}</style></defs><g id="a"/><g id="b"><g id="c"><polygon class="d" points="19.99 297.04 33.98 230.84 34.91 226.64 34.91 35.33 294.13 35.33 408.32 .84 411.1 0 0 0 0 391.63 19.99 297.04"/><polygon class="d" points="143.33 460.31 59.16 460.31 51.27 496.99 152.45 496.99 143.33 460.31"/><polygon class="d" points="459.9 60.7 459.9 460.31 237.57 460.31 237.57 496.99 496.99 496.99 496.99 49.5 459.9 60.7"/><path class="d" d="M495.67,0h-19.58l-.4,.06L201.3,83.06c-10.6,3.28-17.63,14.86-17.58,25.96l.59,140.66c0,.58-.38,1.1-.94,1.26l-35.37,10.65c-.72,.22-1.47-.21-1.65-.93L110.83,123.24c-4.49-19.75-30.63-22-34.88-2.2L.03,478.52l-.03,.27v16.88c0,.73,.59,1.32,1.32,1.32H33.83c.63,0,1.17-.44,1.29-1.06l34.57-173.67c.09-.48,.45-.86,.91-1l49.89-15.02c.72-.22,1.47,.21,1.65,.93l63.01,245.12c4.12,15.01,33.41,11.54,33.92-4.02l.98-270.61c0-.58,.38-1.09,.94-1.26,10.63-3.1,109.6-34.21,149.6-46.8,9.05-2.85,13.85-12.71,10.52-21.6h0c-3.05-8.14-11.89-12.53-20.22-10.04l-141.51,42.17-.31-124.81c0-.56,.55-1.8,1.08-1.98L496.1,30.24c.53-.18,.89-.68,.89-1.25V1.32c0-.73-.59-1.32-1.32-1.32ZM77.93,281.69l16.72-80.53,18.34,70.65-35.06,9.87Zm105.71,125.23l-28.58-111.37,28.58-8.36v119.73Z"/></g></g></svg>