<svg xmlns="http://www.w3.org/2000/svg" viewBox="0 0 463.67 513.84"><defs><style>.cls-1{fill:#231f20;}</style></defs><g id="Layer_2" data-name="Layer 2"><g id="Layer_3" data-name="Layer 3"><polygon class="cls-1" points="0.67 415.22 22.1 322.89 22.1 300.04 0.67 303.84 0.67 415.22"/><polygon class="cls-1" points="20.88 466.17 94.25 466.17 93.17 444.09 26 444.09 20.88 466.17"/><polygon class="cls-1" points="441.1 31.39 441.1 444.09 130.24 444.09 128.9 466.17 463.67 466.17 463.67 27.38 441.1 31.39"/><polygon class="cls-1" points="417.87 3.17 0.67 3.17 0.67 271.2 22.1 267.62 22.1 25.09 294.39 25.09 417.87 3.17"/><path class="cls-1" d="M463.67,21.84V0L140.35,57.39a17.59,17.59,0,0,0-14.48,16.25L114.74,256.33l-4,.69-9-183.55a8.07,8.07,0,0,0-9.47-7.55h0A8,8,0,0,0,85.88,72L39.17,270.23,0,276.44v22.3L33.89,293,0,439l.21,27.15H15.74l41.1-177.09,32.49-5.91,9.22,218.46a12.75,12.75,0,0,0,12.73,12.21h0a12.75,12.75,0,0,0,12.73-12l12.63-227.26,77.92-13.63a10.76,10.76,0,0,0-3.69-21.2l-73,12.62,9.37-168.77a7.12,7.12,0,0,1,5.85-6.6ZM61.36,265.68l23.22-99.44,4.75,95.13Zm50.94,30.79L111.41,279l2-.35Z"/></g></g></svg>